<svg width="100" height="71" viewBox="0 0 100 71" fill="none" xmlns="http://www.w3.org/2000/svg">
<g clip-path="url(#clip0_30511_4312)">
<path d="M97.9351 11.0209C97.3795 8.87903 96.2652 6.92307 94.7059 5.3529C93.1466 3.78273 91.1985 2.6546 89.0605 2.08381C76.0987 0.555076 63.0512 -0.133827 50 0.0214158C36.949 -0.133827 23.9016 0.555076 10.9395 2.08381C8.80161 2.6546 6.85352 3.78273 5.29435 5.3529C3.73511 6.92307 2.62073 8.87903 2.06495 11.0209C0.645081 18.9827 -0.045259 27.0575 0.00255109 35.1446C-0.0476339 43.2736 0.642706 51.39 2.06495 59.3934C2.64954 61.5008 3.77674 63.4175 5.33403 64.9531C6.89127 66.4886 8.82411 67.5886 10.9395 68.1429C23.9016 69.6716 36.949 70.3609 50 70.2053C63.0512 70.3609 76.0987 69.6716 89.0605 68.1429C91.176 67.5886 93.1091 66.4886 94.6659 64.9531C96.2233 63.4175 97.3507 61.5008 97.9351 59.3934C99.3575 51.39 100.047 43.2736 99.9975 35.1446C100.046 27.0575 99.355 18.9827 97.9351 11.0209ZM39.7505 50.0813V20.3329L65.9367 35.1446L39.7505 50.0188V50.0813Z" fill="#4081ec"/>
<path d="M78.8393 12H21V57.4545H78.8393V12Z" fill="#4081ec"/>
<path d="M34.9603 30.1822C39.3663 30.1822 42.9381 26.9261 42.9381 22.9094C42.9381 18.8928 39.3663 15.6367 34.9603 15.6367C30.5542 15.6367 26.9824 18.8928 26.9824 22.9094C26.9824 26.9261 30.5542 30.1822 34.9603 30.1822Z" fill="#F2F2F2"/>
<path d="M62.8841 30.1822C67.2901 30.1822 70.8619 26.9261 70.8619 22.9094C70.8619 18.8928 67.2901 15.6367 62.8841 15.6367C58.4781 15.6367 54.9062 18.8928 54.9062 22.9094C54.9062 26.9261 58.4781 30.1822 62.8841 30.1822Z" fill="#F2F2F2"/>
<path d="M31.6738 45.6142C34.7606 43.5669 38.3051 42.1662 42.0544 41.5121C45.8037 40.858 49.6651 40.9667 53.363 41.8304C57.0608 42.6941 60.5039 44.2915 63.4462 46.5086C66.3885 48.7256 68.7576 51.5075 70.3841 54.6557L64.8665 57.0248C63.6225 54.6172 61.8107 52.4897 59.5605 50.7941C57.3103 49.0986 54.6772 47.877 51.8492 47.2165C49.0212 46.5559 46.0681 46.4728 43.2008 46.973C40.3334 47.4732 37.6227 48.5444 35.262 50.1102L31.6738 45.6142Z" fill="#F2F2F2"/>
</g>
<defs>
<clipPath id="clip0_30511_4312">
<rect width="100" height="71" fill="white"/>
</clipPath>
</defs>
</svg>
