<svg width="70" height="71" viewBox="0 0 100 71" fill="none" xmlns="http://www.w3.org/2000/svg">
<path d="M97.9351 11.0209C97.3795 8.87903 96.2652 6.92307 94.7059 5.3529C93.1466 3.78273 91.1985 2.6546 89.0605 2.08381C76.0987 0.555076 63.0512 -0.133827 50 0.0214157C36.949 -0.133827 23.9016 0.555076 10.9395 2.08381C8.80161 2.6546 6.85352 3.78273 5.29435 5.3529C3.73511 6.92307 2.62073 8.87903 2.06495 11.0209C0.645081 18.9827 -0.045259 27.0575 0.00255109 35.1446C-0.0476339 43.2736 0.642706 51.39 2.06495 59.3934C2.64954 61.5008 3.77674 63.4175 5.33403 64.9531C6.89127 66.4886 8.82411 67.5886 10.9395 68.1429C23.9016 69.6716 36.949 70.3609 50 70.2053C63.0512 70.3609 76.0987 69.6716 89.0605 68.1429C91.176 67.5886 93.1091 66.4886 94.6659 64.9531C96.2233 63.4175 97.3507 61.5008 97.9351 59.3934C99.3575 51.39 100.047 43.2736 99.9975 35.1446C100.046 27.0575 99.355 18.9827 97.9351 11.0209ZM39.7505 50.0813V20.3329L65.9367 35.1446L39.7505 50.0188V50.0813Z" fill="#4081ec"/>
</svg>
